# xmcd
#
# Track frame offsets: 
#        150
#        6987
#        19697
#        33308
#        55475
#        70610
#        82718
#        92913
#        103477
#        115286
#        127136
#
# Disc length: 1867 seconds
#
# Revision: 0
# Processed by: cddbd v1.5.1PL2 Copyright (c) Steve Scherf et al.
# Submitted via: ExactAudioCopy v0.95b3
#
DISCID=9007490b
DTITLE=Layla og Spillemændende - Laila og Spillemændende
DYEAR=2005
DGENRE=Folklore
TTITLE0=Rendestenens Lilje
TTITLE1=Fiskerpigens Sang
TTITLE2=Gillelejevalsen
TTITLE3=I En Sal På Hospitalet
TTITLE4=Kuffsteinerlied
TTITLE5=To Brune Øjne
TTITLE6=Jeg Er Zigeuner
TTITLE7=Jeg Sidder Bag Fængslets Mure
TTITLE8=Nu Piber Alle Fløjter
TTITLE9=Lorelei
TTITLE10=Tre Hvide Duer
EXTD=
EXTT0=
EXTT1=
EXTT2=
EXTT3=
EXTT4=
EXTT5=
EXTT6=
EXTT7=
EXTT8=
EXTT9=
EXTT10=
PLAYORDER=
